<svg xmlns="http://www.w3.org/2000/svg" xmlns:xlink="http://www.w3.org/1999/xlink" width="500" zoomAndPan="magnify" viewBox="0 0 375 374.999991" height="500" preserveAspectRatio="xMidYMid meet" version="1.0"><defs><clipPath id="32e427a598"><path d="M 357 33 L 369.230469 33 L 369.230469 42 L 357 42 Z M 357 33 " clip-rule="nonzero"/></clipPath><clipPath id="2b3bb28922"><path d="M 28 9.804688 L 350 9.804688 L 350 316 L 28 316 Z M 28 9.804688 " clip-rule="nonzero"/></clipPath><clipPath id="9f27a2cfa6"><path d="M 5.480469 321 L 53 321 L 53 365.304688 L 5.480469 365.304688 Z M 5.480469 321 " clip-rule="nonzero"/></clipPath><clipPath id="3067ca9918"><path d="M 316 306.433594 L 375 306.433594 L 375 375 L 316 375 Z M 316 306.433594 " clip-rule="nonzero"/></clipPath></defs><g clip-path="url(#32e427a598)"><path fill="#000000" d="M 366.554688 41.46875 C 366.121094 41.472656 365.714844 41.363281 365.335938 41.144531 C 363.242188 39.945312 361.089844 38.765625 358.941406 37.640625 C 358.660156 37.484375 358.421875 37.28125 358.21875 37.03125 C 358.019531 36.78125 357.871094 36.5 357.78125 36.195312 C 357.6875 35.886719 357.65625 35.574219 357.6875 35.253906 C 357.71875 34.933594 357.808594 34.632812 357.957031 34.347656 C 358.105469 34.0625 358.300781 33.816406 358.546875 33.609375 C 358.789062 33.402344 359.066406 33.246094 359.371094 33.148438 C 359.675781 33.046875 359.988281 33.007812 360.308594 33.03125 C 360.628906 33.054688 360.929688 33.136719 361.21875 33.277344 C 363.421875 34.429688 365.644531 35.640625 367.773438 36.871094 C 368.011719 37.007812 368.21875 37.175781 368.398438 37.378906 C 368.578125 37.582031 368.71875 37.808594 368.824219 38.058594 C 368.929688 38.3125 368.988281 38.570312 369.007812 38.84375 C 369.027344 39.113281 369 39.378906 368.929688 39.640625 C 368.859375 39.90625 368.75 40.148438 368.601562 40.375 C 368.449219 40.601562 368.265625 40.796875 368.050781 40.960938 C 367.835938 41.125 367.601562 41.253906 367.34375 41.339844 C 367.085938 41.425781 366.820312 41.46875 366.550781 41.46875 Z M 366.554688 41.46875 " fill-opacity="1" fill-rule="nonzero"/></g><g clip-path="url(#2b3bb28922)"><path fill="#000000" d="M 31.011719 315.859375 C 30.871094 315.859375 30.726562 315.847656 30.589844 315.824219 C 30.269531 315.765625 29.972656 315.652344 29.695312 315.476562 C 29.421875 315.300781 29.191406 315.078125 29.003906 314.8125 C 28.820312 314.546875 28.691406 314.253906 28.617188 313.9375 C 28.546875 313.617188 28.539062 313.300781 28.597656 312.976562 C 29.441406 308.089844 30.417969 303.15625 31.488281 298.300781 C 31.558594 297.980469 31.6875 297.6875 31.875 297.421875 C 32.0625 297.15625 32.292969 296.933594 32.570312 296.757812 C 32.84375 296.582031 33.144531 296.46875 33.464844 296.410156 C 33.785156 296.355469 34.105469 296.359375 34.425781 296.433594 C 34.742188 296.503906 35.035156 296.632812 35.300781 296.820312 C 35.570312 297.007812 35.792969 297.238281 35.964844 297.511719 C 36.140625 297.789062 36.257812 298.085938 36.3125 298.410156 C 36.371094 298.730469 36.363281 299.050781 36.292969 299.371094 C 35.230469 304.144531 34.273438 309.003906 33.441406 313.820312 C 33.390625 314.105469 33.292969 314.375 33.148438 314.625 C 33.003906 314.878906 32.820312 315.097656 32.597656 315.285156 C 32.375 315.46875 32.128906 315.613281 31.855469 315.710938 C 31.582031 315.8125 31.300781 315.859375 31.011719 315.859375 Z M 37.40625 286.886719 C 37.214844 286.886719 37.03125 286.867188 36.84375 286.824219 C 36.660156 286.78125 36.484375 286.71875 36.316406 286.632812 C 36.144531 286.550781 35.988281 286.449219 35.839844 286.328125 C 35.695312 286.207031 35.566406 286.074219 35.449219 285.921875 C 35.335938 285.773438 35.238281 285.609375 35.160156 285.4375 C 35.082031 285.265625 35.027344 285.085938 34.988281 284.902344 C 34.953125 284.714844 34.9375 284.527344 34.945312 284.339844 C 34.953125 284.148438 34.980469 283.964844 35.03125 283.78125 C 36.328125 278.992188 37.753906 274.164062 39.273438 269.4375 C 39.371094 269.125 39.527344 268.84375 39.738281 268.59375 C 39.949219 268.339844 40.199219 268.140625 40.488281 267.988281 C 40.78125 267.835938 41.089844 267.75 41.414062 267.71875 C 41.742188 267.691406 42.0625 267.730469 42.375 267.832031 C 42.683594 267.929688 42.964844 268.085938 43.214844 268.300781 C 43.464844 268.511719 43.664062 268.765625 43.8125 269.058594 C 43.960938 269.351562 44.046875 269.660156 44.074219 269.988281 C 44.097656 270.316406 44.058594 270.632812 43.957031 270.945312 C 42.480469 275.597656 41.054688 280.347656 39.777344 285.070312 C 39.707031 285.328125 39.597656 285.566406 39.449219 285.789062 C 39.304688 286.011719 39.125 286.203125 38.914062 286.367188 C 38.707031 286.53125 38.476562 286.65625 38.222656 286.746094 C 37.972656 286.835938 37.714844 286.882812 37.449219 286.886719 Z M 46.484375 258.636719 C 46.1875 258.636719 45.902344 258.585938 45.625 258.480469 C 45.316406 258.363281 45.046875 258.195312 44.808594 257.972656 C 44.570312 257.75 44.382812 257.492188 44.25 257.195312 C 44.113281 256.898438 44.039062 256.585938 44.027344 256.261719 C 44.015625 255.933594 44.070312 255.617188 44.183594 255.3125 C 45.921875 250.65625 47.792969 245.984375 49.738281 241.429688 C 49.867188 241.128906 50.050781 240.863281 50.28125 240.636719 C 50.515625 240.410156 50.785156 240.234375 51.085938 240.113281 C 51.390625 239.992188 51.703125 239.933594 52.027344 239.9375 C 52.355469 239.941406 52.667969 240.007812 52.96875 240.132812 C 53.265625 240.261719 53.53125 240.441406 53.757812 240.675781 C 53.988281 240.910156 54.160156 241.175781 54.285156 241.480469 C 54.40625 241.78125 54.464844 242.097656 54.460938 242.421875 C 54.457031 242.75 54.390625 243.0625 54.265625 243.363281 C 52.347656 247.847656 50.503906 252.449219 48.789062 257.035156 C 48.613281 257.511719 48.316406 257.898438 47.898438 258.191406 C 47.480469 258.484375 47.019531 258.632812 46.507812 258.636719 Z M 125.484375 239.457031 C 125.160156 239.480469 124.839844 239.4375 124.53125 239.332031 C 124.222656 239.226562 123.945312 239.066406 123.699219 238.847656 C 123.453125 238.632812 123.261719 238.378906 123.117188 238.085938 C 122.972656 237.789062 122.890625 237.480469 122.867188 237.15625 C 122.847656 236.828125 122.890625 236.511719 122.996094 236.199219 C 123.101562 235.890625 123.261719 235.613281 123.476562 235.367188 C 123.695312 235.121094 123.949219 234.925781 124.242188 234.78125 C 124.535156 234.636719 124.84375 234.554688 125.171875 234.535156 C 129.867188 233.9375 134.375 232.667969 138.695312 230.730469 C 138.992188 230.59375 139.304688 230.523438 139.628906 230.511719 C 139.957031 230.5 140.273438 230.550781 140.578125 230.667969 C 140.882812 230.78125 141.152344 230.953125 141.390625 231.175781 C 141.628906 231.398438 141.816406 231.65625 141.953125 231.957031 C 142.085938 232.253906 142.160156 232.566406 142.167969 232.890625 C 142.179688 233.21875 142.128906 233.535156 142.011719 233.839844 C 141.898438 234.144531 141.730469 234.417969 141.507812 234.65625 C 141.285156 234.894531 141.023438 235.078125 140.726562 235.214844 C 135.960938 237.355469 130.988281 238.757812 125.808594 239.417969 C 125.683594 239.449219 125.574219 239.457031 125.484375 239.457031 Z M 110.707031 239.394531 C 110.59375 239.402344 110.484375 239.402344 110.371094 239.394531 C 105.222656 238.6875 100.257812 237.304688 95.484375 235.25 C 95.183594 235.117188 94.921875 234.9375 94.695312 234.699219 C 94.46875 234.464844 94.296875 234.195312 94.175781 233.890625 C 94.054688 233.585938 94 233.269531 94.003906 232.945312 C 94.011719 232.617188 94.078125 232.304688 94.210938 232.003906 C 94.339844 231.703125 94.523438 231.441406 94.757812 231.214844 C 94.992188 230.988281 95.261719 230.8125 95.566406 230.695312 C 95.871094 230.574219 96.1875 230.519531 96.511719 230.523438 C 96.839844 230.53125 97.152344 230.597656 97.453125 230.730469 C 101.816406 232.601562 106.351562 233.859375 111.058594 234.496094 C 111.367188 234.539062 111.65625 234.636719 111.925781 234.792969 C 112.195312 234.945312 112.429688 235.140625 112.625 235.382812 C 112.820312 235.625 112.964844 235.894531 113.058594 236.191406 C 113.152344 236.488281 113.1875 236.789062 113.167969 237.101562 C 113.144531 237.410156 113.070312 237.707031 112.933594 237.988281 C 112.800781 238.269531 112.621094 238.515625 112.394531 238.726562 C 112.171875 238.941406 111.914062 239.105469 111.625 239.21875 C 111.335938 239.335938 111.035156 239.394531 110.726562 239.394531 Z M 58.179688 231.355469 C 57.972656 231.355469 57.765625 231.328125 57.566406 231.273438 C 57.363281 231.222656 57.171875 231.144531 56.992188 231.046875 C 56.808594 230.945312 56.640625 230.820312 56.492188 230.679688 C 56.339844 230.535156 56.210938 230.375 56.097656 230.199219 C 55.988281 230.019531 55.902344 229.832031 55.839844 229.636719 C 55.777344 229.4375 55.738281 229.234375 55.730469 229.023438 C 55.71875 228.816406 55.734375 228.609375 55.773438 228.40625 C 55.816406 228.203125 55.878906 228.007812 55.972656 227.820312 C 58.136719 223.347656 60.4375 218.875 62.808594 214.527344 C 62.964844 214.238281 63.167969 213.992188 63.421875 213.785156 C 63.675781 213.582031 63.960938 213.433594 64.273438 213.339844 C 64.585938 213.246094 64.90625 213.21875 65.230469 213.253906 C 65.554688 213.289062 65.859375 213.382812 66.144531 213.539062 C 66.433594 213.695312 66.679688 213.902344 66.882812 214.15625 C 67.089844 214.410156 67.238281 214.695312 67.328125 215.007812 C 67.421875 215.324219 67.449219 215.640625 67.414062 215.964844 C 67.378906 216.292969 67.28125 216.597656 67.125 216.882812 C 64.789062 221.167969 62.527344 225.574219 60.394531 229.976562 C 60.1875 230.398438 59.882812 230.734375 59.484375 230.984375 C 59.085938 231.230469 58.648438 231.355469 58.179688 231.355469 Z M 83.851562 227.695312 C 83.261719 227.695312 82.742188 227.507812 82.289062 227.128906 C 78.316406 223.828125 74.796875 220.09375 71.734375 215.929688 C 71.507812 215.671875 71.339844 215.378906 71.234375 215.050781 C 71.128906 214.722656 71.097656 214.386719 71.132812 214.042969 C 71.167969 213.699219 71.269531 213.378906 71.441406 213.078125 C 71.613281 212.78125 71.835938 212.527344 72.113281 212.324219 C 72.386719 212.117188 72.695312 211.976562 73.027344 211.898438 C 73.363281 211.824219 73.703125 211.816406 74.039062 211.882812 C 74.378906 211.945312 74.6875 212.074219 74.972656 212.273438 C 75.253906 212.46875 75.488281 212.710938 75.667969 213.003906 C 78.492188 216.847656 81.738281 220.292969 85.402344 223.34375 C 85.800781 223.675781 86.070312 224.089844 86.207031 224.589844 C 86.339844 225.089844 86.320312 225.585938 86.144531 226.074219 C 85.96875 226.5625 85.671875 226.957031 85.246094 227.253906 C 84.824219 227.550781 84.351562 227.703125 83.832031 227.703125 Z M 151.914062 227.203125 C 151.414062 227.203125 150.957031 227.0625 150.542969 226.785156 C 150.128906 226.503906 149.828125 226.132812 149.636719 225.667969 C 149.449219 225.207031 149.40625 224.730469 149.507812 224.238281 C 149.609375 223.75 149.839844 223.328125 150.199219 222.980469 C 151.328125 221.878906 152.382812 220.714844 153.367188 219.484375 C 155.265625 217.082031 156.792969 214.460938 157.945312 211.621094 C 158.0625 211.308594 158.234375 211.03125 158.464844 210.789062 C 158.695312 210.546875 158.960938 210.359375 159.265625 210.226562 C 159.570312 210.09375 159.890625 210.027344 160.222656 210.023438 C 160.558594 210.019531 160.878906 210.082031 161.183594 210.207031 C 161.492188 210.335938 161.765625 210.519531 162 210.753906 C 162.230469 210.992188 162.410156 211.265625 162.535156 211.574219 C 162.65625 211.886719 162.714844 212.207031 162.707031 212.539062 C 162.699219 212.875 162.625 213.191406 162.488281 213.496094 C 161.15625 216.761719 159.394531 219.773438 157.203125 222.535156 C 156.089844 223.925781 154.898438 225.238281 153.621094 226.476562 C 153.148438 226.941406 152.578125 227.179688 151.914062 227.183594 Z M 72.367188 205.296875 C 71.925781 205.296875 71.511719 205.1875 71.125 204.960938 C 70.742188 204.738281 70.441406 204.429688 70.226562 204.042969 C 70.007812 203.65625 69.902344 203.238281 69.910156 202.792969 C 69.917969 202.347656 70.039062 201.9375 70.269531 201.558594 C 71.34375 199.785156 72.457031 197.992188 73.578125 196.234375 C 75.15625 193.773438 76.820312 191.3125 78.527344 188.976562 C 78.722656 188.722656 78.957031 188.515625 79.234375 188.351562 C 79.511719 188.191406 79.808594 188.089844 80.128906 188.042969 C 80.445312 187.996094 80.757812 188.015625 81.070312 188.089844 C 81.382812 188.167969 81.667969 188.304688 81.925781 188.492188 C 82.183594 188.683594 82.398438 188.914062 82.566406 189.1875 C 82.734375 189.460938 82.84375 189.753906 82.898438 190.070312 C 82.953125 190.386719 82.945312 190.703125 82.875 191.015625 C 82.804688 191.328125 82.675781 191.617188 82.496094 191.882812 C 80.851562 194.132812 79.25 196.484375 77.722656 198.878906 C 76.621094 200.613281 75.53125 202.375 74.46875 204.117188 C 74.246094 204.484375 73.945312 204.773438 73.574219 204.984375 C 73.199219 205.195312 72.796875 205.296875 72.367188 205.296875 Z M 66.265625 204.121094 C 65.777344 204.125 65.332031 203.996094 64.921875 203.730469 C 64.511719 203.46875 64.207031 203.113281 64.007812 202.667969 C 61.917969 197.996094 60.289062 193.164062 59.125 188.179688 C 59.039062 187.859375 59.019531 187.53125 59.066406 187.203125 C 59.113281 186.875 59.21875 186.566406 59.390625 186.28125 C 59.5625 185.996094 59.78125 185.753906 60.050781 185.558594 C 60.316406 185.363281 60.613281 185.226562 60.9375 185.148438 C 61.261719 185.074219 61.585938 185.0625 61.914062 185.121094 C 62.242188 185.175781 62.542969 185.292969 62.824219 185.472656 C 63.105469 185.652344 63.339844 185.878906 63.527344 186.152344 C 63.714844 186.425781 63.84375 186.726562 63.910156 187.050781 C 65.003906 191.730469 66.535156 196.261719 68.492188 200.652344 C 68.578125 200.839844 68.636719 201.035156 68.671875 201.234375 C 68.707031 201.4375 68.71875 201.640625 68.703125 201.847656 C 68.6875 202.050781 68.644531 202.25 68.582031 202.445312 C 68.515625 202.640625 68.425781 202.824219 68.316406 202.996094 C 68.203125 203.167969 68.074219 203.324219 67.921875 203.464844 C 67.769531 203.605469 67.605469 203.722656 67.425781 203.824219 C 67.246094 203.921875 67.054688 203.996094 66.855469 204.046875 C 66.65625 204.097656 66.457031 204.121094 66.25 204.121094 Z M 163.152344 200.5625 L 163.09375 200.5625 C 162.769531 200.554688 162.457031 200.484375 162.160156 200.351562 C 161.859375 200.222656 161.597656 200.039062 161.375 199.800781 C 161.148438 199.566406 160.976562 199.296875 160.859375 198.992188 C 160.742188 198.6875 160.6875 198.371094 160.695312 198.046875 C 160.695312 197.722656 160.695312 197.390625 160.695312 197.0625 C 160.707031 192.675781 160.054688 188.390625 158.730469 184.207031 C 158.65625 183.902344 158.640625 183.59375 158.679688 183.285156 C 158.722656 182.972656 158.820312 182.679688 158.972656 182.40625 C 159.125 182.132812 159.324219 181.898438 159.566406 181.699219 C 159.808594 181.503906 160.082031 181.355469 160.378906 181.261719 C 160.675781 181.167969 160.984375 181.132812 161.296875 181.15625 C 161.609375 181.175781 161.90625 181.257812 162.1875 181.394531 C 162.46875 181.53125 162.714844 181.714844 162.929688 181.945312 C 163.140625 182.175781 163.300781 182.4375 163.414062 182.730469 C 164.902344 187.394531 165.648438 192.175781 165.648438 197.070312 C 165.648438 197.4375 165.648438 197.800781 165.648438 198.164062 C 165.640625 198.488281 165.570312 198.796875 165.441406 199.089844 C 165.3125 199.386719 165.128906 199.644531 164.898438 199.867188 C 164.667969 200.09375 164.402344 200.265625 164.105469 200.386719 C 163.804688 200.503906 163.496094 200.5625 163.171875 200.5625 Z M 89.972656 181.46875 C 89.316406 181.46875 88.753906 181.246094 88.285156 180.792969 C 88.046875 180.570312 87.863281 180.308594 87.726562 180.011719 C 87.59375 179.710938 87.523438 179.398438 87.515625 179.074219 C 87.503906 178.746094 87.558594 178.429688 87.675781 178.125 C 87.792969 177.820312 87.960938 177.550781 88.183594 177.3125 C 91.671875 173.59375 95.441406 170.195312 99.496094 167.109375 C 99.757812 166.914062 100.046875 166.777344 100.363281 166.695312 C 100.679688 166.613281 100.996094 166.597656 101.320312 166.644531 C 101.644531 166.691406 101.945312 166.796875 102.226562 166.960938 C 102.507812 167.128906 102.746094 167.34375 102.941406 167.601562 C 103.136719 167.863281 103.273438 168.152344 103.355469 168.46875 C 103.4375 168.785156 103.453125 169.105469 103.40625 169.429688 C 103.359375 169.75 103.253906 170.054688 103.089844 170.335938 C 102.921875 170.617188 102.710938 170.855469 102.449219 171.050781 C 98.609375 173.964844 95.046875 177.179688 91.757812 180.699219 C 91.269531 181.210938 90.675781 181.46875 89.972656 181.46875 Z M 59.449219 175.398438 C 59.132812 175.398438 58.828125 175.339844 58.535156 175.222656 C 58.242188 175.105469 57.980469 174.941406 57.753906 174.722656 C 57.523438 174.503906 57.34375 174.253906 57.210938 173.964844 C 57.078125 173.679688 57.003906 173.378906 56.988281 173.0625 C 56.914062 171.585938 56.875 170.109375 56.875 168.660156 C 56.875 166.464844 56.964844 164.230469 57.132812 162.085938 C 57.246094 160.671875 57.386719 159.234375 57.566406 157.820312 C 57.59375 157.488281 57.6875 157.175781 57.84375 156.882812 C 58.003906 156.585938 58.210938 156.335938 58.46875 156.125 C 58.726562 155.917969 59.019531 155.765625 59.339844 155.675781 C 59.660156 155.582031 59.984375 155.558594 60.3125 155.597656 C 60.644531 155.636719 60.953125 155.742188 61.242188 155.910156 C 61.53125 156.074219 61.777344 156.292969 61.976562 156.558594 C 62.175781 156.824219 62.316406 157.117188 62.398438 157.441406 C 62.480469 157.765625 62.496094 158.089844 62.445312 158.421875 C 62.28125 159.765625 62.144531 161.125 62.035156 162.46875 C 61.878906 164.511719 61.792969 166.59375 61.792969 168.660156 C 61.792969 170.035156 61.832031 171.433594 61.902344 172.808594 C 61.917969 173.132812 61.875 173.449219 61.765625 173.757812 C 61.65625 174.0625 61.492188 174.339844 61.277344 174.582031 C 61.058594 174.824219 60.800781 175.015625 60.507812 175.15625 C 60.214844 175.296875 59.90625 175.375 59.582031 175.394531 Z M 154.152344 172.882812 C 153.371094 172.882812 152.734375 172.578125 152.238281 171.972656 C 149.351562 168.332031 145.796875 165.542969 141.578125 163.601562 C 141.28125 163.464844 141.019531 163.28125 140.796875 163.042969 C 140.574219 162.804688 140.40625 162.53125 140.289062 162.226562 C 140.175781 161.921875 140.125 161.605469 140.132812 161.277344 C 140.144531 160.953125 140.214844 160.640625 140.351562 160.34375 C 140.484375 160.042969 140.671875 159.785156 140.910156 159.5625 C 141.144531 159.335938 141.417969 159.167969 141.722656 159.050781 C 142.027344 158.9375 142.34375 158.882812 142.667969 158.894531 C 142.996094 158.902344 143.304688 158.976562 143.605469 159.109375 C 148.53125 161.375 152.6875 164.628906 156.0625 168.878906 C 156.359375 169.246094 156.535156 169.667969 156.589844 170.136719 C 156.644531 170.609375 156.570312 171.054688 156.367188 171.484375 C 156.164062 171.910156 155.863281 172.25 155.460938 172.503906 C 155.0625 172.757812 154.625 172.886719 154.152344 172.886719 Z M 113.765625 164.09375 C 113.480469 164.09375 113.203125 164.046875 112.933594 163.949219 C 112.664062 163.855469 112.421875 163.714844 112.199219 163.535156 C 111.980469 163.355469 111.796875 163.140625 111.648438 162.894531 C 111.503906 162.652344 111.402344 162.386719 111.347656 162.109375 C 111.292969 161.828125 111.285156 161.546875 111.328125 161.261719 C 111.371094 160.980469 111.457031 160.714844 111.59375 160.460938 C 111.730469 160.210938 111.902344 159.992188 112.117188 159.800781 C 112.328125 159.609375 112.566406 159.460938 112.832031 159.351562 C 117.714844 157.285156 122.808594 156.175781 128.113281 156.027344 C 128.4375 156.019531 128.753906 156.078125 129.054688 156.195312 C 129.359375 156.316406 129.628906 156.488281 129.863281 156.714844 C 130.101562 156.941406 130.28125 157.203125 130.414062 157.503906 C 130.542969 157.800781 130.613281 158.113281 130.621094 158.441406 C 130.625 158.765625 130.570312 159.082031 130.453125 159.386719 C 130.332031 159.691406 130.160156 159.960938 129.933594 160.195312 C 129.707031 160.429688 129.445312 160.613281 129.148438 160.746094 C 128.847656 160.875 128.535156 160.945312 128.210938 160.953125 C 123.523438 161.089844 119.019531 162.074219 114.699219 163.90625 C 114.402344 164.035156 114.089844 164.105469 113.765625 164.109375 Z M 62.929688 146.042969 C 62.707031 146.042969 62.488281 146.011719 62.273438 145.953125 C 61.957031 145.867188 61.671875 145.722656 61.414062 145.523438 C 61.160156 145.320312 60.949219 145.078125 60.789062 144.792969 C 60.628906 144.511719 60.527344 144.207031 60.488281 143.882812 C 60.449219 143.558594 60.472656 143.242188 60.558594 142.925781 C 61.917969 138.050781 63.582031 133.285156 65.546875 128.625 C 65.671875 128.320312 65.851562 128.054688 66.085938 127.828125 C 66.316406 127.597656 66.582031 127.417969 66.886719 127.296875 C 67.1875 127.171875 67.503906 127.113281 67.828125 127.113281 C 68.15625 127.117188 68.46875 127.179688 68.769531 127.304688 C 69.070312 127.433594 69.335938 127.613281 69.566406 127.84375 C 69.792969 128.078125 69.96875 128.34375 70.09375 128.648438 C 70.214844 128.949219 70.277344 129.265625 70.273438 129.589844 C 70.273438 129.917969 70.207031 130.234375 70.082031 130.535156 C 68.195312 135 66.601562 139.570312 65.296875 144.242188 C 65.222656 144.5 65.113281 144.742188 64.960938 144.960938 C 64.8125 145.183594 64.628906 145.378906 64.417969 145.539062 C 64.203125 145.703125 63.96875 145.828125 63.714844 145.914062 C 63.460938 146 63.199219 146.042969 62.929688 146.042969 Z M 74.335938 118.722656 C 74.121094 118.722656 73.910156 118.695312 73.703125 118.640625 C 73.496094 118.585938 73.300781 118.503906 73.113281 118.398438 C 72.929688 118.289062 72.761719 118.160156 72.609375 118.011719 C 72.457031 117.859375 72.324219 117.691406 72.214844 117.507812 C 72.109375 117.324219 72.023438 117.128906 71.96875 116.921875 C 71.910156 116.714844 71.878906 116.503906 71.875 116.289062 C 71.875 116.074219 71.898438 115.863281 71.953125 115.65625 C 72.003906 115.449219 72.082031 115.25 72.1875 115.0625 C 74.539062 110.808594 77.199219 106.496094 80.085938 102.261719 C 80.269531 101.996094 80.5 101.777344 80.769531 101.605469 C 81.042969 101.429688 81.335938 101.3125 81.65625 101.253906 C 81.972656 101.195312 82.289062 101.199219 82.605469 101.265625 C 82.921875 101.335938 83.214844 101.457031 83.480469 101.640625 C 83.746094 101.820312 83.96875 102.046875 84.148438 102.316406 C 84.328125 102.585938 84.445312 102.878906 84.511719 103.195312 C 84.574219 103.515625 84.574219 103.832031 84.511719 104.148438 C 84.449219 104.464844 84.328125 104.757812 84.152344 105.027344 C 81.347656 109.160156 78.765625 113.34375 76.484375 117.472656 C 76.265625 117.859375 75.964844 118.164062 75.578125 118.386719 C 75.195312 118.613281 74.78125 118.722656 74.335938 118.722656 Z M 90.929688 94.152344 C 90.457031 94.152344 90.023438 94.027344 89.621094 93.773438 C 89.222656 93.523438 88.921875 93.183594 88.714844 92.757812 C 88.511719 92.332031 88.4375 91.882812 88.488281 91.414062 C 88.542969 90.945312 88.71875 90.523438 89.011719 90.15625 C 92.113281 86.273438 95.40625 82.453125 98.847656 78.796875 C 99.070312 78.558594 99.332031 78.371094 99.628906 78.234375 C 99.925781 78.101562 100.234375 78.027344 100.5625 78.015625 C 100.886719 78.003906 101.203125 78.058594 101.507812 78.171875 C 101.816406 78.285156 102.085938 78.453125 102.324219 78.679688 C 102.5625 78.902344 102.75 79.160156 102.886719 79.457031 C 103.019531 79.753906 103.09375 80.066406 103.105469 80.394531 C 103.117188 80.71875 103.0625 81.035156 102.949219 81.34375 C 102.835938 81.648438 102.667969 81.921875 102.441406 82.160156 C 99.109375 85.722656 95.886719 89.449219 92.859375 93.230469 C 92.355469 93.851562 91.703125 94.152344 90.90625 94.136719 Z M 111.164062 72.488281 C 110.65625 72.488281 110.195312 72.34375 109.777344 72.058594 C 109.359375 71.773438 109.058594 71.394531 108.875 70.921875 C 108.691406 70.449219 108.65625 69.964844 108.769531 69.472656 C 108.882812 68.976562 109.128906 68.558594 109.5 68.214844 C 113.148438 64.855469 116.988281 61.578125 120.910156 58.464844 C 121.164062 58.25 121.453125 58.089844 121.769531 57.992188 C 122.085938 57.890625 122.414062 57.855469 122.746094 57.890625 C 123.078125 57.921875 123.390625 58.019531 123.683594 58.175781 C 123.976562 58.335938 124.226562 58.546875 124.433594 58.808594 C 124.640625 59.070312 124.789062 59.363281 124.878906 59.683594 C 124.964844 60.007812 124.988281 60.335938 124.945312 60.664062 C 124.898438 60.996094 124.792969 61.304688 124.625 61.59375 C 124.453125 61.878906 124.234375 62.125 123.964844 62.320312 C 120.140625 65.359375 116.390625 68.566406 112.832031 71.839844 C 112.351562 72.277344 111.789062 72.492188 111.140625 72.484375 Z M 134.335938 54.054688 C 133.796875 54.054688 133.3125 53.894531 132.878906 53.574219 C 132.441406 53.253906 132.148438 52.835938 131.988281 52.320312 C 131.828125 51.804688 131.835938 51.289062 132.015625 50.78125 C 132.195312 50.269531 132.503906 49.863281 132.949219 49.558594 C 137.042969 46.757812 141.3125 44.058594 145.621094 41.527344 C 145.902344 41.332031 146.210938 41.199219 146.550781 41.132812 C 146.886719 41.066406 147.222656 41.070312 147.558594 41.144531 C 147.894531 41.21875 148.203125 41.359375 148.480469 41.5625 C 148.757812 41.765625 148.980469 42.015625 149.15625 42.3125 C 149.328125 42.609375 149.433594 42.929688 149.472656 43.273438 C 149.507812 43.613281 149.476562 43.949219 149.375 44.28125 C 149.273438 44.609375 149.109375 44.902344 148.882812 45.164062 C 148.660156 45.421875 148.390625 45.625 148.078125 45.773438 C 143.863281 48.234375 139.71875 50.890625 135.699219 53.652344 C 135.285156 53.921875 134.832031 54.054688 134.335938 54.054688 Z M 159.914062 39.046875 C 159.632812 39.046875 159.363281 39.003906 159.101562 38.914062 C 158.839844 38.824219 158.597656 38.691406 158.378906 38.519531 C 158.164062 38.347656 157.980469 38.144531 157.828125 37.910156 C 157.679688 37.675781 157.574219 37.421875 157.507812 37.152344 C 157.445312 36.882812 157.429688 36.609375 157.457031 36.332031 C 157.484375 36.054688 157.558594 35.789062 157.675781 35.539062 C 157.796875 35.285156 157.953125 35.0625 158.144531 34.863281 C 158.339844 34.664062 158.5625 34.503906 158.8125 34.378906 C 163.238281 32.164062 167.832031 30.0625 172.433594 28.128906 C 172.734375 28 173.050781 27.9375 173.375 27.933594 C 173.703125 27.933594 174.015625 27.992188 174.320312 28.117188 C 174.621094 28.242188 174.890625 28.417969 175.121094 28.648438 C 175.351562 28.878906 175.53125 29.144531 175.660156 29.445312 C 175.785156 29.746094 175.847656 30.0625 175.851562 30.386719 C 175.851562 30.714844 175.789062 31.03125 175.667969 31.332031 C 175.542969 31.636719 175.367188 31.902344 175.136719 32.132812 C 174.90625 32.367188 174.640625 32.546875 174.335938 32.671875 C 169.832031 34.5625 165.347656 36.609375 161.003906 38.785156 C 160.660156 38.960938 160.296875 39.046875 159.914062 39.046875 Z M 346.691406 31.574219 C 346.347656 31.578125 346.019531 31.507812 345.707031 31.371094 C 341.28125 29.460938 336.664062 27.6875 332.042969 26.101562 C 331.738281 25.996094 331.464844 25.832031 331.226562 25.617188 C 330.984375 25.398438 330.792969 25.144531 330.652344 24.855469 C 330.511719 24.5625 330.429688 24.253906 330.410156 23.929688 C 330.390625 23.605469 330.433594 23.292969 330.539062 22.984375 C 330.644531 22.679688 330.804688 22.402344 331.015625 22.160156 C 331.230469 21.914062 331.480469 21.722656 331.773438 21.578125 C 332.0625 21.433594 332.371094 21.351562 332.691406 21.328125 C 333.015625 21.304688 333.332031 21.34375 333.636719 21.445312 C 338.375 23.074219 343.085938 24.890625 347.644531 26.863281 C 347.90625 26.972656 348.140625 27.125 348.351562 27.320312 C 348.558594 27.511719 348.730469 27.734375 348.859375 27.988281 C 348.992188 28.238281 349.078125 28.507812 349.117188 28.789062 C 349.15625 29.070312 349.148438 29.351562 349.089844 29.628906 C 349.03125 29.90625 348.929688 30.167969 348.78125 30.410156 C 348.632812 30.652344 348.445312 30.863281 348.226562 31.042969 C 348.003906 31.222656 347.757812 31.359375 347.492188 31.453125 C 347.222656 31.546875 346.945312 31.589844 346.660156 31.589844 Z M 187.242188 27.585938 C 186.953125 27.585938 186.667969 27.535156 186.394531 27.4375 C 186.121094 27.335938 185.875 27.191406 185.652344 27.003906 C 185.429688 26.816406 185.246094 26.59375 185.101562 26.34375 C 184.957031 26.089844 184.859375 25.816406 184.8125 25.53125 C 184.765625 25.242188 184.769531 24.957031 184.820312 24.667969 C 184.875 24.382812 184.976562 24.113281 185.125 23.863281 C 185.273438 23.613281 185.460938 23.394531 185.6875 23.210938 C 185.914062 23.027344 186.164062 22.890625 186.441406 22.792969 C 191.132812 21.175781 195.949219 19.683594 200.753906 18.363281 C 201.066406 18.277344 201.386719 18.253906 201.710938 18.292969 C 202.035156 18.332031 202.339844 18.433594 202.621094 18.59375 C 202.90625 18.753906 203.148438 18.964844 203.347656 19.222656 C 203.550781 19.480469 203.695312 19.765625 203.78125 20.082031 C 203.867188 20.394531 203.890625 20.714844 203.851562 21.039062 C 203.808594 21.363281 203.710938 21.667969 203.546875 21.953125 C 203.386719 22.234375 203.175781 22.476562 202.917969 22.679688 C 202.664062 22.878906 202.375 23.023438 202.0625 23.109375 C 197.355469 24.40625 192.636719 25.867188 188.042969 27.453125 C 187.785156 27.539062 187.515625 27.578125 187.242188 27.570312 Z M 318.675781 21.921875 C 318.464844 21.921875 318.253906 21.894531 318.046875 21.839844 C 313.371094 20.605469 308.558594 19.515625 303.753906 18.601562 C 303.425781 18.546875 303.121094 18.433594 302.835938 18.257812 C 302.554688 18.082031 302.316406 17.859375 302.125 17.585938 C 301.933594 17.316406 301.800781 17.015625 301.730469 16.6875 C 301.660156 16.363281 301.65625 16.035156 301.71875 15.710938 C 301.777344 15.382812 301.902344 15.078125 302.085938 14.800781 C 302.273438 14.523438 302.503906 14.292969 302.78125 14.109375 C 303.058594 13.925781 303.363281 13.804688 303.691406 13.746094 C 304.019531 13.6875 304.34375 13.691406 304.667969 13.765625 C 309.589844 14.699219 314.507812 15.8125 319.300781 17.078125 C 319.589844 17.152344 319.859375 17.277344 320.101562 17.449219 C 320.347656 17.625 320.554688 17.835938 320.722656 18.082031 C 320.890625 18.332031 321.007812 18.601562 321.078125 18.894531 C 321.144531 19.183594 321.160156 19.480469 321.125 19.777344 C 321.085938 20.074219 320.996094 20.355469 320.855469 20.621094 C 320.714844 20.882812 320.53125 21.113281 320.304688 21.3125 C 320.078125 21.511719 319.828125 21.660156 319.546875 21.765625 C 319.265625 21.871094 318.976562 21.925781 318.675781 21.921875 Z M 215.816406 19.699219 C 215.515625 19.695312 215.222656 19.636719 214.941406 19.527344 C 214.660156 19.417969 214.40625 19.257812 214.183594 19.054688 C 213.957031 18.851562 213.777344 18.613281 213.640625 18.34375 C 213.503906 18.070312 213.421875 17.785156 213.390625 17.484375 C 213.359375 17.183594 213.386719 16.886719 213.464844 16.59375 C 213.542969 16.300781 213.671875 16.03125 213.851562 15.785156 C 214.03125 15.539062 214.246094 15.335938 214.5 15.171875 C 214.753906 15.003906 215.03125 14.890625 215.324219 14.828125 C 220.195312 13.8125 225.164062 12.941406 230.082031 12.238281 C 230.402344 12.191406 230.722656 12.207031 231.042969 12.289062 C 231.359375 12.367188 231.648438 12.507812 231.910156 12.703125 C 232.171875 12.898438 232.386719 13.136719 232.554688 13.417969 C 232.71875 13.699219 232.828125 14.003906 232.871094 14.328125 C 232.917969 14.652344 232.902344 14.972656 232.820312 15.289062 C 232.738281 15.605469 232.597656 15.894531 232.402344 16.15625 C 232.203125 16.417969 231.964844 16.632812 231.683594 16.796875 C 231.402344 16.964844 231.097656 17.066406 230.773438 17.113281 C 225.960938 17.800781 221.09375 18.652344 216.324219 19.648438 C 216.15625 19.683594 215.988281 19.699219 215.816406 19.699219 Z M 289.589844 16.382812 C 289.492188 16.390625 289.394531 16.390625 289.296875 16.382812 C 284.480469 15.808594 279.566406 15.398438 274.6875 15.132812 C 274.363281 15.117188 274.050781 15.039062 273.757812 14.898438 C 273.460938 14.757812 273.203125 14.566406 272.988281 14.324219 C 272.769531 14.078125 272.605469 13.804688 272.496094 13.496094 C 272.386719 13.1875 272.339844 12.871094 272.355469 12.542969 C 272.375 12.21875 272.453125 11.90625 272.59375 11.609375 C 272.734375 11.316406 272.925781 11.058594 273.167969 10.839844 C 273.410156 10.621094 273.683594 10.457031 273.992188 10.347656 C 274.300781 10.238281 274.617188 10.191406 274.945312 10.210938 C 279.917969 10.457031 284.933594 10.894531 289.855469 11.476562 C 290.183594 11.496094 290.492188 11.574219 290.785156 11.71875 C 291.082031 11.859375 291.335938 12.054688 291.550781 12.300781 C 291.769531 12.542969 291.929688 12.820312 292.039062 13.128906 C 292.144531 13.4375 292.191406 13.757812 292.171875 14.082031 C 292.152344 14.410156 292.070312 14.71875 291.925781 15.011719 C 291.785156 15.308594 291.589844 15.5625 291.347656 15.78125 C 291.101562 15.996094 290.828125 16.160156 290.519531 16.265625 C 290.210938 16.375 289.890625 16.417969 289.566406 16.398438 Z M 245.183594 15.511719 C 244.859375 15.527344 244.542969 15.476562 244.234375 15.363281 C 243.929688 15.25 243.65625 15.082031 243.417969 14.859375 C 243.175781 14.636719 242.988281 14.378906 242.851562 14.082031 C 242.714844 13.785156 242.640625 13.472656 242.628906 13.148438 C 242.617188 12.820312 242.667969 12.503906 242.78125 12.199219 C 242.894531 11.890625 243.058594 11.617188 243.28125 11.378906 C 243.503906 11.136719 243.761719 10.949219 244.058594 10.8125 C 244.355469 10.675781 244.667969 10.601562 244.992188 10.589844 C 249.914062 10.210938 254.972656 9.980469 259.9375 9.910156 C 260.265625 9.90625 260.578125 9.964844 260.882812 10.085938 C 261.183594 10.207031 261.453125 10.378906 261.6875 10.609375 C 261.921875 10.835938 262.101562 11.101562 262.230469 11.398438 C 262.359375 11.699219 262.425781 12.011719 262.429688 12.339844 C 262.433594 12.664062 262.375 12.980469 262.253906 13.285156 C 262.132812 13.585938 261.960938 13.855469 261.730469 14.089844 C 261.503906 14.324219 261.242188 14.503906 260.941406 14.632812 C 260.640625 14.761719 260.328125 14.828125 260.003906 14.832031 C 255.144531 14.898438 250.214844 15.125 245.351562 15.503906 Z M 245.183594 15.511719 " fill-opacity="1" fill-rule="nonzero"/></g><path fill="#000000" d="M 27.980469 337.964844 C 27.898438 337.96875 27.816406 337.96875 27.730469 337.964844 C 27.40625 337.933594 27.101562 337.839844 26.8125 337.683594 C 26.527344 337.53125 26.28125 337.324219 26.074219 337.074219 C 25.867188 336.820312 25.71875 336.535156 25.625 336.222656 C 25.53125 335.910156 25.5 335.59375 25.53125 335.269531 C 25.777344 332.804688 26.058594 330.34375 26.367188 327.882812 C 26.394531 327.546875 26.484375 327.230469 26.640625 326.933594 C 26.792969 326.636719 27 326.382812 27.261719 326.167969 C 27.519531 325.957031 27.808594 325.804688 28.132812 325.707031 C 28.453125 325.613281 28.78125 325.589844 29.113281 325.628906 C 29.445312 325.667969 29.757812 325.773438 30.046875 325.9375 C 30.339844 326.105469 30.585938 326.324219 30.785156 326.59375 C 30.988281 326.859375 31.128906 327.15625 31.207031 327.484375 C 31.289062 327.808594 31.300781 328.136719 31.246094 328.46875 C 30.949219 330.890625 30.667969 333.335938 30.425781 335.75 C 30.394531 336.054688 30.3125 336.339844 30.175781 336.613281 C 30.039062 336.886719 29.855469 337.125 29.628906 337.328125 C 29.402344 337.535156 29.148438 337.691406 28.863281 337.800781 C 28.582031 337.910156 28.285156 337.964844 27.980469 337.964844 Z M 27.980469 337.964844 " fill-opacity="1" fill-rule="nonzero"/><g clip-path="url(#9f27a2cfa6)"><path fill="#000000" d="M 26.398438 365.179688 C 22.035156 350.898438 14.210938 333.089844 5.480469 321.8125 L 28.339844 331.625 L 52.203125 324.527344 C 42.207031 334.714844 32.378906 351.519531 26.398438 365.179688 Z M 26.398438 365.179688 " fill-opacity="1" fill-rule="nonzero"/></g><g clip-path="url(#3067ca9918)"><path fill="#ffffff" d="M 456.171875 410.578125 C 452.546875 412.46875 448.878906 414.167969 445.128906 415.566406 C 440.882812 417.128906 436.570312 418.265625 432.078125 418.789062 C 422.039062 420.445312 409.921875 418.816406 400.101562 413.730469 C 392.039062 409.550781 385.539062 402.96875 383.371094 393.6875 C 385.828125 393.195312 388.21875 392.523438 390.527344 391.621094 C 394.992188 389.851562 399.085938 387.179688 402.53125 383.09375 C 404.949219 380.226562 407.574219 375.59375 408.097656 371.375 C 408.5625 367.617188 407.519531 364.164062 404.167969 361.859375 C 397.476562 357.296875 391.035156 359.570312 385.964844 365.109375 C 380.265625 371.347656 376.570312 381.929688 376.761719 388.769531 C 374.332031 389.027344 371.902344 389.179688 369.496094 389.316406 C 359.550781 389.863281 349.621094 386.671875 341.363281 380.476562 C 333.726562 374.71875 327.53125 366.410156 324.085938 356.089844 C 321.1875 347.824219 321.335938 339.035156 322.699219 331.101562 C 323.644531 325.574219 325.238281 320.519531 326.929688 316.214844 C 328.464844 312.292969 329.921875 309.03125 331.597656 306.808594 C 331.679688 306.726562 331.679688 306.589844 331.597656 306.507812 C 331.515625 306.425781 331.378906 306.425781 331.296875 306.507812 C 329.003906 308.289062 326.363281 311.019531 324.042969 314.761719 C 321.433594 318.957031 319.289062 324.300781 317.890625 330.113281 C 315.789062 338.804688 315.691406 348.617188 318.632812 357.914062 C 322.449219 369.425781 329.375 378.707031 337.902344 385.121094 C 347.257812 392.167969 358.550781 395.785156 369.855469 395.183594 C 372.410156 395.046875 375.003906 394.882812 377.585938 394.59375 C 380.058594 405.847656 387.753906 413.90625 397.503906 418.855469 C 408.425781 424.394531 421.914062 425.96875 433.011719 423.984375 C 436.832031 423.121094 440.5 421.859375 444.058594 420.242188 C 446.667969 419.046875 449.207031 417.664062 451.695312 416.167969 C 452.214844 415.527344 452.726562 414.867188 453.246094 414.222656 C 454.195312 412.988281 455.199219 411.785156 456.171875 410.578125 Z M 390.347656 369.085938 C 393.289062 365.875 396.941406 364.082031 400.816406 366.738281 C 402.601562 367.960938 402.464844 370.058594 401.902344 372.085938 C 401.171875 374.773438 399.511719 377.472656 398 379.28125 C 395.238281 382.574219 391.929688 384.710938 388.34375 386.136719 C 386.503906 386.863281 384.59375 387.425781 382.640625 387.835938 C 382.738281 382.230469 385.828125 374.019531 390.347656 369.085938 Z M 465.484375 408.109375 C 465.320312 408.851562 464.839844 409.660156 464.511719 410.109375 C 461.734375 413.742188 458.921875 417.402344 455.800781 420.816406 C 454.402344 422.339844 452.929688 423.777344 451.449219 425.203125 C 447.929688 428.5625 444.347656 431.671875 440.84375 434.960938 C 440.5 435.375 439.882812 435.429688 439.46875 435.074219 C 439.058594 434.730469 439.003906 434.113281 439.359375 433.703125 C 442.53125 428.957031 445.625 424.203125 449.058594 419.542969 C 449.910156 418.390625 450.789062 417.265625 451.679688 416.140625 C 454.070312 414.703125 456.421875 413.140625 458.726562 411.480469 C 459.195312 411.195312 459.332031 410.578125 459.042969 410.109375 C 458.753906 409.644531 458.136719 409.507812 457.671875 409.796875 C 457.175781 410.054688 456.679688 410.316406 456.1875 410.578125 C 456.40625 410.304688 456.640625 410.015625 456.859375 409.742188 C 451.089844 409.960938 442.640625 410.714844 440.597656 410.851562 L 435.625 411.03125 C 435.171875 410.960938 434.179688 411.25 433.699219 411.070312 C 433.027344 410.824219 433.328125 410.988281 433.109375 410.671875 C 432.808594 410.246094 432.699219 410.78125 432.640625 410.523438 C 432.53125 410.027344 432.078125 410.578125 432.1875 410.234375 C 432.257812 410.042969 431.929688 410.191406 432.039062 410.027344 C 432.3125 409.632812 431.28125 409.453125 431.984375 409.328125 C 432.121094 409.300781 431.902344 409.125 432.09375 409.152344 C 432.628906 409.21875 431.613281 408.492188 432.792969 409.261719 C 432.875 409.179688 433.011719 409.191406 433.097656 409.273438 C 433.179688 409.355469 433.164062 409.492188 433.082031 409.578125 C 433.355469 410.070312 433.289062 409.863281 433.289062 409.863281 C 433.289062 409.863281 433.617188 410.152344 433.464844 409.972656 C 433.300781 409.769531 433.753906 409.960938 433.632812 409.851562 C 433.464844 409.699219 433.851562 409.699219 433.699219 409.617188 C 433.453125 409.492188 433.90625 409.328125 433.671875 409.300781 C 433.507812 409.273438 433.753906 409.097656 433.589844 409.109375 C 433.152344 409.152344 433.535156 408.289062 433.136719 408.699219 C 432.972656 408.863281 432.863281 408.082031 432.726562 408.535156 C 432.683594 408.65625 432.449219 408.328125 432.628906 408.371094 C 432.863281 408.410156 432.4375 408.246094 432.601562 407.957031 C 432.835938 407.5625 433.410156 407.191406 433.933594 406.863281 C 434.332031 406.617188 434.746094 406.5625 435.03125 406.492188 L 440.074219 405.585938 C 442.671875 405.300781 455.171875 403.613281 460.308594 403.558594 C 461.859375 403.546875 462.972656 403.777344 463.480469 403.96875 C 464.59375 404.421875 465.074219 405.203125 465.335938 405.820312 C 465.625 406.492188 465.679688 407.289062 465.484375 408.109375 Z M 465.484375 408.109375 " fill-opacity="1" fill-rule="nonzero"/></g></svg>