<svg xmlns="http://www.w3.org/2000/svg" xmlns:xlink="http://www.w3.org/1999/xlink" width="500" zoomAndPan="magnify" viewBox="0 0 375 374.999991" height="500" preserveAspectRatio="xMidYMid meet" version="1.0"><defs><g/></defs><rect x="-37.5" width="450" fill="#ffffff" y="-37.499999" height="449.999989" fill-opacity="1"/><rect x="-37.5" width="450" fill="#2b2b2b" y="-37.499999" height="449.999989" fill-opacity="1"/><g fill="#ffffff" fill-opacity="1"><g transform="translate(120.107538, 176.999988)"><g><path d="M 3.015625 -23.828125 L 30.4375 -34.953125 L 30.4375 -27.84375 L 12.484375 -20.8125 L 30.4375 -13.890625 L 30.4375 -6.765625 L 3.015625 -17.90625 Z M 3.015625 -23.828125 "/></g></g></g><g fill="#ffffff" fill-opacity="1"><g transform="translate(150.80295, 176.999988)"><g><path d="M 37.765625 -41.375 L 17.25 -8.28125 L 36.40625 -8.28125 L 36.40625 0 L 0.796875 0 L 21.265625 -33.109375 L 3.71875 -33.109375 L 3.71875 -41.375 Z M 37.765625 -41.375 "/></g></g></g><g fill="#ffffff" fill-opacity="1"><g transform="translate(186.865081, 176.999988)"><g><path d="M 26.6875 -41.375 L 26.6875 -33.109375 L 12.4375 -33.109375 L 12.4375 -24.875 L 26.078125 -24.875 L 26.078125 -16.609375 L 12.4375 -16.609375 L 12.4375 -8.28125 L 26.6875 -8.28125 L 26.6875 0 L 3.015625 0 L 3.015625 -41.375 Z M 26.6875 -41.375 "/></g></g></g><g fill="#ffffff" fill-opacity="1"><g transform="translate(213.447685, 176.999988)"><g><path d="M 12.4375 -25.6875 L 12.4375 0 L 3.015625 0 L 3.015625 -41.375 L 12.4375 -41.375 L 28.890625 -15.703125 L 28.984375 -15.703125 L 28.984375 -41.375 L 38.421875 -41.375 L 38.421875 0 L 28.984375 0 L 12.546875 -25.6875 Z M 12.4375 -25.6875 "/></g></g></g><g fill="#ffffff" fill-opacity="1"><g transform="translate(87.904415, 224.249985)"><g><path d="M 25.03125 -8.53125 C 26.46875 -8.53125 27.863281 -8.742188 29.21875 -9.171875 C 30.570312 -9.609375 31.566406 -10.03125 32.203125 -10.4375 L 33.15625 -11.078125 L 37.171875 -3.0625 C 37.035156 -2.957031 36.847656 -2.820312 36.609375 -2.65625 C 36.378906 -2.488281 35.835938 -2.175781 34.984375 -1.71875 C 34.128906 -1.269531 33.21875 -0.878906 32.25 -0.546875 C 31.28125 -0.210938 30.007812 0.0820312 28.4375 0.34375 C 26.863281 0.613281 25.242188 0.75 23.578125 0.75 C 19.734375 0.75 16.085938 -0.191406 12.640625 -2.078125 C 9.191406 -3.972656 6.414062 -6.570312 4.3125 -9.875 C 2.207031 -13.1875 1.15625 -16.765625 1.15625 -20.609375 C 1.15625 -23.523438 1.769531 -26.316406 3 -28.984375 C 4.238281 -31.660156 5.882812 -33.953125 7.9375 -35.859375 C 10 -37.765625 12.398438 -39.285156 15.140625 -40.421875 C 17.890625 -41.554688 20.703125 -42.125 23.578125 -42.125 C 26.253906 -42.125 28.71875 -41.804688 30.96875 -41.171875 C 33.226562 -40.535156 34.828125 -39.898438 35.765625 -39.265625 L 37.171875 -38.3125 L 33.15625 -30.296875 C 32.914062 -30.492188 32.5625 -30.734375 32.09375 -31.015625 C 31.625 -31.304688 30.6875 -31.6875 29.28125 -32.15625 C 27.882812 -32.625 26.46875 -32.859375 25.03125 -32.859375 C 22.757812 -32.859375 20.71875 -32.488281 18.90625 -31.75 C 17.101562 -31.007812 15.675781 -30.035156 14.625 -28.828125 C 13.570312 -27.628906 12.769531 -26.335938 12.21875 -24.953125 C 11.664062 -23.566406 11.390625 -22.15625 11.390625 -20.71875 C 11.390625 -17.570312 12.566406 -14.753906 14.921875 -12.265625 C 17.273438 -9.773438 20.644531 -8.53125 25.03125 -8.53125 Z M 25.03125 -8.53125 "/></g></g></g><g fill="#ffffff" fill-opacity="1"><g transform="translate(123.16404, 224.249985)"><g><path d="M 1.15625 -20.71875 C 1.15625 -26.695312 3.191406 -31.757812 7.265625 -35.90625 C 11.347656 -40.050781 16.265625 -42.125 22.015625 -42.125 C 27.804688 -42.125 32.722656 -40.0625 36.765625 -35.9375 C 40.804688 -31.8125 42.828125 -26.738281 42.828125 -20.71875 C 42.828125 -14.664062 40.835938 -9.570312 36.859375 -5.4375 C 32.878906 -1.3125 27.929688 0.75 22.015625 0.75 C 15.960938 0.75 10.972656 -1.296875 7.046875 -5.390625 C 3.117188 -9.484375 1.15625 -14.59375 1.15625 -20.71875 Z M 11.328125 -20.71875 C 11.328125 -18.539062 11.660156 -16.554688 12.328125 -14.765625 C 13.003906 -12.984375 14.175781 -11.472656 15.84375 -10.234375 C 17.519531 -8.992188 19.578125 -8.375 22.015625 -8.375 C 25.523438 -8.375 28.175781 -9.578125 29.96875 -11.984375 C 31.757812 -14.390625 32.65625 -17.300781 32.65625 -20.71875 C 32.65625 -24.09375 31.742188 -26.988281 29.921875 -29.40625 C 28.097656 -31.832031 25.460938 -33.046875 22.015625 -33.046875 C 18.609375 -33.046875 15.972656 -31.832031 14.109375 -29.40625 C 12.253906 -26.988281 11.328125 -24.09375 11.328125 -20.71875 Z M 11.328125 -20.71875 "/></g></g></g><g fill="#ffffff" fill-opacity="1"><g transform="translate(164.643036, 224.249985)"><g><path d="M 3.015625 -41.375 L 15 -41.375 C 20.75 -41.375 25.660156 -39.410156 29.734375 -35.484375 C 33.816406 -31.554688 35.859375 -26.632812 35.859375 -20.71875 C 35.859375 -14.757812 33.828125 -9.816406 29.765625 -5.890625 C 25.703125 -1.960938 20.78125 0 15 0 L 3.015625 0 Z M 12.4375 -8.421875 L 13.890625 -8.421875 C 17.335938 -8.421875 20.15625 -9.582031 22.34375 -11.90625 C 24.53125 -14.226562 25.644531 -17.148438 25.6875 -20.671875 C 25.6875 -24.179688 24.585938 -27.101562 22.390625 -29.4375 C 20.203125 -31.78125 17.367188 -32.953125 13.890625 -32.953125 L 12.4375 -32.953125 Z M 12.4375 -8.421875 "/></g></g></g><g fill="#ffffff" fill-opacity="1"><g transform="translate(199.150318, 224.249985)"><g><path d="M 26.6875 -41.375 L 26.6875 -33.109375 L 12.4375 -33.109375 L 12.4375 -24.875 L 26.078125 -24.875 L 26.078125 -16.609375 L 12.4375 -16.609375 L 12.4375 -8.28125 L 26.6875 -8.28125 L 26.6875 0 L 3.015625 0 L 3.015625 -41.375 Z M 26.6875 -41.375 "/></g></g></g><g fill="#ffffff" fill-opacity="1"><g transform="translate(225.732916, 224.249985)"><g><path d="M 29.484375 -43.140625 L 8.828125 6.015625 L 1.15625 6.015625 L 21.8125 -43.140625 Z M 29.484375 -43.140625 "/></g></g></g><g fill="#ffffff" fill-opacity="1"><g transform="translate(253.870353, 224.249985)"><g><path d="M 2.765625 -13.890625 L 20.71875 -20.8125 L 2.765625 -27.84375 L 2.765625 -34.953125 L 30.1875 -23.828125 L 30.1875 -17.90625 L 2.765625 -6.765625 Z M 2.765625 -13.890625 "/></g></g></g></svg>